<svg xmlns="http://www.w3.org/2000/svg" viewBox="0 0 64 64" role="img" aria-label="퐁당">
  <defs>
    <linearGradient id="pond" x1="10" y1="8" x2="54" y2="58" gradientUnits="userSpaceOnUse">
      <stop stop-color="#0e5660"/>
      <stop offset="1" stop-color="#071d22"/>
    </linearGradient>
    <linearGradient id="water" x1="19" y1="22" x2="46" y2="48" gradientUnits="userSpaceOnUse">
      <stop stop-color="#82eee3"/>
      <stop offset="1" stop-color="#27c3c1"/>
    </linearGradient>
    <clipPath id="drop">
      <path d="M32 11C24.4 20.7 17.2 28.6 17.2 38.3A14.8 14.8 0 0 0 32 53.1a14.8 14.8 0 0 0 14.8-14.8C46.8 28.6 39.6 20.7 32 11Z"/>
    </clipPath>
  </defs>
  <rect width="64" height="64" rx="18" fill="url(#pond)"/>
  <path d="M32 11C24.4 20.7 17.2 28.6 17.2 38.3A14.8 14.8 0 0 0 32 53.1a14.8 14.8 0 0 0 14.8-14.8C46.8 28.6 39.6 20.7 32 11Z" fill="#effffd"/>
  <g clip-path="url(#drop)">
    <path d="M11 39.2c6.8-4.5 12.8 4.3 20.3-.1 8.4-5 14.7 4.9 22.7-.8V58H11V39.2Z" fill="url(#water)"/>
    <path d="M12.5 44.5c6.7-4 12.4 3.7 19.4-.4 8.1-4.7 14.1 4.4 21.7-.8" fill="none" stroke="#0d6a73" stroke-width="2.6" stroke-linecap="round" opacity=".72"/>
  </g>
  <path d="M25 29.7c1.2-3 3-5.6 5.1-8.5" fill="none" stroke="#fff" stroke-width="3" stroke-linecap="round" opacity=".78"/>
</svg>
